<?xml version="1.0" standalone="no"?><!DOCTYPE svg PUBLIC "-//W3C//DTD SVG 1.1//EN" "http://www.w3.org/Graphics/SVG/1.1/DTD/svg11.dtd"><svg t="1560081221374" class="icon" style="" viewBox="0 0 1024 1024" version="1.1" xmlns="http://www.w3.org/2000/svg" p-id="1185" xmlns:xlink="http://www.w3.org/1999/xlink" width="200" height="200"><defs><style type="text/css"></style></defs><path d="M868.6 294.8H582.4c-12.4 0-23.5-7.4-28.2-18.8l-0.7-1.7-32.6-58.2c-15.1-34.3-48.9-56.3-86.5-56.3H160.6c-52.1 0-94.6 42.4-94.6 94.6v565.9c0 52.1 42.4 94.6 94.6 94.6h708c52.1 0 94.6-42.4 94.6-94.6V389.4c-0.1-52.2-42.5-94.6-94.6-94.6z m-708-71h273.8c12.4 0 23.5 7.4 28.2 18.8l0.7 1.7 32.6 58.2c15.1 34.3 48.9 56.3 86.5 56.3h286.1c16.9 0 30.6 13.7 30.6 30.6v54H130v-189c0-16.9 13.7-30.6 30.6-30.6z m708 627.1h-708c-16.9 0-30.6-13.7-30.6-30.6V507.4h769.1v312.9c0 16.8-13.7 30.6-30.5 30.6z" p-id="1186"></path></svg>